PathFileType	4	(X/Y/Z)	C:/Users/beibeiliu/ov580/test_trc\sequence.15_training_dense_left.trc
DataRate	CameraRate	NumFrames	NumMarkers	Units	OrigDataRate	OrigDataStartFrame	OrigNumFrames
120	120	8	19	mm	120	262	348
Frame#	Time	ThumbCMC			ThumbMCP			ThumbIP			ThumbTip			IndexMCP			IndexPIP			IndexTip			MiddleMCP			MiddlePIP			MiddleTip			RingMCP			RingPIP			RingTip			PinkyMCP			PinkyPIP			PinkyTip			BackHand1			BackHand2			BackHand3	
		X0	Y0	Z0	X1	Y1	Z1	X2	Y2	Z2	X3	Y3	Z3	X4	Y4	Z4	X5	Y5	Z5	X6	Y6	Z6	X7	Y7	Z7	X8	Y8	Z8	X9	Y9	Z9	X10	Y10	Z10	X11	Y11	Z11	X12	Y12	Z12	X13	Y13	Z13	X14	Y14	Z14	X15	Y15	Z15	X16	Y16	Z16	X17	Y17	Z17	X18	Y18	Z18	
261	2.175	-138.112	16.512	-23.9224	-132.969	15.1895	-59.4876	-139.051	26.3013	-83.3179	-151.11	32.7027	-100.86	-124.045	74.0749	-54.7181	-117.396	89.43	-70.6176	-115.391	104.935	-85.3283	-148.408	72.6096	-73.1202	-150.154	55.3038	-97.8166	-152.44	29.5621	-81.5296	-169.481	66.8876	-71.3502	-166.111	49.3474	-95.2714	-160.341	25.9266	-80.7133	-190.192	66.1714	-55.0879	-194.329	78.8209	-68.295	-195.299	95.8907	-81.9166	-175.494	55.5132	-27.3751	-181.01	41.5377	-5.53111	-149.104	44.8843	-9.70217	
262	2.18333	-135.835	14.5473	-23.1008	-132.238	17.2721	-56.8916	-133.552	22.3731	-77.747	-147.534	35.9749	-101.078	-122.034	73.879	-51.8451	-109.171	88.1075	-66.1877	-105.219	105.395	-80.2761	-142.811	70.824	-67.897	-140.88	56.8402	-95.1323	-148.578	28.822	-77.8705	-163.016	68.0746	-71.2086	-159.007	49.6128	-92.5378	-155.274	27.1163	-79.7361	-187.611	69.9188	-54.1104	-190.022	84.0097	-68.5867	-189.386	96.9639	-75.38	-169.271	52.7167	-21.11	-179.27	37.1015	-1.07664	-150.901	41.7843	-8.89827	
263	2.19167	-130.857	10.528	-23.6301	-125.967	14.421	-59.6797	-129.404	23.9864	-81.5324	-142.293	35.8218	-97.7814	-112.718	70.2325	-48.8911	-103.03	86.8303	-63.3056	-93.9715	99.7464	-74.8151	-136.527	70.5955	-66.5691	-137.374	55.1396	-94.0219	-143.652	27.1073	-74.2175	-153.604	68.4089	-68.5296	-154.638	53.3229	-90.6008	-151.083	27.3653	-77.8073	-178.82	69.6125	-53.1773	-179.733	86.3142	-67.1538	-182.537	102.01	-75.6728	-167.41	53.8024	-23.0913	-175.058	35.984	-2.16982	-141.747	41.6676	-9.77104	
264	2.2	-131.848	11.1976	-23.9211	-126.051	10.5511	-56.3368	-126.43	24.2626	-83.2309	-136.813	33.6016	-98.8797	-110.98	70.1003	-48.1155	-97.6958	81.0699	-59.1932	-89.0881	97.4415	-72.6743	-132.73	71.9148	-70.1342	-130.694	54.6034	-92.5073	-137.527	27.9455	-76.0801	-151.57	68.6032	-67.4887	-146.744	51.2751	-89.4361	-147.687	27.8748	-76.9144	-174.999	74.1162	-54.164	-174.727	85.4139	-63.67	-173.437	99.58	-73.9565	-159.339	52.645	-22.1112	-169.074	37.5665	-4.11991	-140.609	39.5405	-6.5625	
265	2.20833	-125.599	12.863	-27.7552	-124.599	12.253	-57.1255	-122.307	20.7423	-81.0096	-133.626	34.8272	-97.9788	-108.752	66.6795	-46.7499	-93.3985	84.7104	-62.0566	-85.9983	96.9295	-73.7612	-127.188	70.0554	-66.5252	-130.707	57.6734	-92.7525	-137.401	28.6291	-76.0574	-144.975	68.9549	-70.2771	-147.779	50.898	-90.2373	-147.248	28.3229	-77.7878	-170.741	73.3574	-52.3278	-170.693	89.4264	-67.1515	-170.859	103.508	-77.2976	-158.178	54.2997	-19.6479	-165.308	40.2697	-3.21444	-134.521	39.5403	-7.12851	
266	2.21667	-124.779	13.86	-28.1469	-123.099	15.6791	-58.6434	-122.112	23.101	-80.8801	-132.784	36.5943	-98.8304	-108.122	68.7937	-47.7851	-94.3086	82.8607	-60.0655	-84.3281	96.9349	-74.2538	-129.437	72.6239	-68.2365	-129.628	56.833	-94.0103	-136.878	28.057	-74.5412	-145.153	70.2307	-69.1527	-146.254	52.9107	-90.5029	-149.114	25.354	-74.844	-169.17	76.0032	-53.8167	-172.461	90.3172	-66.8293	-169.446	103.423	-79.0847	-154.816	57.4082	-21.734	-167.366	39.1244	-4.26688	-135.032	39.6234	-8.02542	
267	2.225	-125.455	15.1717	-28.3352	-121.054	16.4039	-61.4986	-125.42	24.6558	-80.5702	-133.689	37.5268	-102.566	-109.052	71.1376	-49.0664	-96.8503	88.6456	-65.7794	-90.2303	104.989	-80.6725	-129.608	74.6954	-72.5167	-130.895	60.1427	-95.1481	-135.07	30.257	-78.568	-151.8	71.4685	-69.907	-147.374	51.5854	-92.4278	-149.232	28.7265	-79.8447	-170.472	74.5113	-53.3662	-174.094	89.2243	-67.0851	-174.612	102.326	-81.0235	-161.246	58.4895	-23.1377	-169.013	38.7388	-4.29823	-138.093	41.5413	-10.0025	
268	2.23333	-126.922	17.4818	-28.1572	-126.206	21.1928	-60.7951	-125.825	30.5609	-86.2036	-137.087	38.6691	-101.713	-111.58	77.7549	-53.9594	-106.514	91.1198	-65.2996	-99.6678	110.886	-82.8636	-137.281	78.0741	-72.8705	-138.184	60.4011	-97.5679	-139.177	35.2585	-83.776	-157.612	73.1969	-73.0114	-151.507	56.2993	-93.0667	-151.523	33.4313	-82.7079	-181.082	75.0451	-54.0858	-180.051	89.0774	-67.8289	-180.774	101.382	-87.5025	-164.859	59.16	-23.8027	-169.926	39.2207	-3.94345	-141.723	48.3526	-12.7798	
